# xmcd
#
# Track frame offsets: 
#        150
#        19993
#        26225
#        47900
#        73518
#        84785
#        99545
#        116215
#        136290
#        152480
#        167400
#        183435
#        204115
#
# Disc length: 3020 seconds
#
# Revision: 3
# Processed by: cddbd v1.5.2PL0 Copyright (c) Steve Scherf et al.
# Submitted via: ExactAudioCopy v0.95b4
#
DISCID=a40bca0d
DTITLE=Chee Yun, Akira Eguchi - Vocalise ~ Violin Showpieces - Chee-Yu
DTITLE=n, Akira Eguchi
DYEAR=1992
DGENRE=Classical
TTITLE0=Elgar · La Capricieuse, Op.17
TTITLE1=Rimsky-Korsakov · The Bumble-Bee from the opera 'The Legend of
TTITLE1=Tsar Saltan'
TTITLE2=Rachmaninov · Vocalise, Op.34 No.14 (transcriped by M.Press)
TTITLE3=Szymanowski · La Fontaine D'arethuse from Mythes, Op.30
TTITLE4=Elgar · Salut D'amour, Op.12 (Love's Greeting)
TTITLE5=Bernstein · 'West Side Story' Suite for Violin and Piano (arra
TTITLE5=nged by R.Penaforte) - I feel pretty
TTITLE6=Bernstein · 'West Side Story' Suite for Violin and Piano (arra
TTITLE6=nged by R.Penaforte) - Somewhere
TTITLE7=Bernstein · 'West Side Story' Suite for Violin and Piano (arra
TTITLE7=nged by R.Penaforte) - America
TTITLE8=Khachaturian · Nocturne transcripted for violin and piano
TTITLE9=Suk · Burleska, Op.17 No.4
TTITLE10=Faure · Berceuse, Op.16
TTITLE11=Massenet · Meditation from 'Thaïs' (transcripted by M.P.Marsi
TTITLE11=ck)
TTITLE12=Sarasate · Introduction et Tarantelle, Op.43
EXTD=
EXTT0=
EXTT1=
EXTT2=
EXTT3=
EXTT4=
EXTT5=
EXTT6=
EXTT7=
EXTT8=
EXTT9=
EXTT10=
EXTT11=
EXTT12=
PLAYORDER=
